<mxfile host="app.diagrams.net" modified="2023-12-21T06:55:59.975Z" agent="Mozilla/5.0 (Windows NT 10.0; Win64; x64) AppleWebKit/537.36 (KHTML, like Gecko) Chrome/120.0.0.0 Safari/537.36" etag="9EPf5V1MP8_QQTxfr2Cy" version="22.1.11" type="github">
  <diagram name="第 1 页" id="QsOI-2K31yz_wyXuHh4w">
    <mxGraphModel dx="982" dy="518" grid="1" gridSize="10" guides="1" tooltips="1" connect="1" arrows="1" fold="1" page="1" pageScale="1" pageWidth="827" pageHeight="1169" math="0" shadow="0">
      <root>
        <mxCell id="0" />
        <mxCell id="1" parent="0" />
        <mxCell id="8WnG8C7CmI3fuw3ncEFO-2" value="&lt;font style=&quot;font-size: 16px;&quot;&gt;&lt;font face=&quot;Times New Roman&quot;&gt;PCF&lt;/font&gt;词法解析器&lt;br&gt;&lt;font face=&quot;Times New Roman&quot;&gt;lexer.ml&lt;/font&gt;&lt;/font&gt;" style="rounded=1;whiteSpace=wrap;html=1;" vertex="1" parent="1">
          <mxGeometry x="140" y="160" width="140" height="60" as="geometry" />
        </mxCell>
        <mxCell id="8WnG8C7CmI3fuw3ncEFO-4" value="" style="edgeStyle=orthogonalEdgeStyle;rounded=0;orthogonalLoop=1;jettySize=auto;html=1;" edge="1" parent="1" source="8WnG8C7CmI3fuw3ncEFO-3" target="8WnG8C7CmI3fuw3ncEFO-2">
          <mxGeometry relative="1" as="geometry" />
        </mxCell>
        <mxCell id="8WnG8C7CmI3fuw3ncEFO-3" value="&lt;font style=&quot;font-size: 16px;&quot;&gt;&lt;font face=&quot;Times New Roman&quot;&gt;解析规则&lt;/font&gt;&lt;br&gt;&lt;font face=&quot;Times New Roman&quot;&gt;lexer.mll&lt;/font&gt;&lt;/font&gt;" style="rounded=1;whiteSpace=wrap;html=1;" vertex="1" parent="1">
          <mxGeometry x="140" y="270" width="140" height="60" as="geometry" />
        </mxCell>
        <mxCell id="8WnG8C7CmI3fuw3ncEFO-5" value="&lt;font face=&quot;Times New Roman&quot; style=&quot;font-size: 18px;&quot;&gt;ocamllex&lt;/font&gt;" style="text;html=1;strokeColor=none;fillColor=none;align=center;verticalAlign=middle;whiteSpace=wrap;rounded=0;" vertex="1" parent="1">
          <mxGeometry x="130" y="230" width="60" height="30" as="geometry" />
        </mxCell>
        <mxCell id="8WnG8C7CmI3fuw3ncEFO-12" value="&lt;font style=&quot;font-size: 16px;&quot;&gt;&lt;font face=&quot;Times New Roman&quot;&gt;PCF&lt;/font&gt;词法解析器&lt;br&gt;&lt;font face=&quot;Times New Roman&quot;&gt;grammer.ml&lt;/font&gt;&lt;/font&gt;" style="rounded=1;whiteSpace=wrap;html=1;" vertex="1" parent="1">
          <mxGeometry x="330" y="160" width="140" height="60" as="geometry" />
        </mxCell>
        <mxCell id="8WnG8C7CmI3fuw3ncEFO-13" value="" style="edgeStyle=orthogonalEdgeStyle;rounded=0;orthogonalLoop=1;jettySize=auto;html=1;" edge="1" parent="1" source="8WnG8C7CmI3fuw3ncEFO-14" target="8WnG8C7CmI3fuw3ncEFO-12">
          <mxGeometry relative="1" as="geometry" />
        </mxCell>
        <mxCell id="8WnG8C7CmI3fuw3ncEFO-14" value="&lt;font style=&quot;font-size: 16px;&quot;&gt;&lt;font face=&quot;Times New Roman&quot;&gt;解析规则&lt;/font&gt;&lt;br&gt;&lt;font face=&quot;Times New Roman&quot;&gt;grammer.mly&lt;/font&gt;&lt;/font&gt;" style="rounded=1;whiteSpace=wrap;html=1;" vertex="1" parent="1">
          <mxGeometry x="330" y="270" width="140" height="60" as="geometry" />
        </mxCell>
        <mxCell id="8WnG8C7CmI3fuw3ncEFO-15" value="&lt;font face=&quot;Times New Roman&quot; style=&quot;font-size: 18px;&quot;&gt;ocamllex&lt;/font&gt;" style="text;html=1;strokeColor=none;fillColor=none;align=center;verticalAlign=middle;whiteSpace=wrap;rounded=0;" vertex="1" parent="1">
          <mxGeometry x="320" y="230" width="60" height="30" as="geometry" />
        </mxCell>
      </root>
    </mxGraphModel>
  </diagram>
</mxfile>
